<svg xmlns="http://www.w3.org/2000/svg" width="32" height="32" id="wallet">
  <g transform="matrix(1.12716 0 0 1.12838 -2.036 -1153.414)">
    <rect width="16.078" height="8.361" x="990.156" y="-291.053" fill="#105286" rx=".984" ry=".984" transform="rotate(105)skewX(.001)"></rect>
    <path fill="#2dbca4" d="M23.655 1033.833a1.638 1.638 89.997 0 1-1.158-2.006l-3.692-.99a1.638 1.638 89.997 0 1-2.006 1.16l-2.968 11.075a1.638 1.638 89.997 0 1 1.158 2.006l3.692.99a1.638 1.638 89.997 0 1 2.006-1.16l2.968-11.075z"></path>
    <path fill="#105286" d="M20.774 1033.312a.648.648 0 0 0-.455-.787.648.648 0 0 0-.787.454.648.648 0 0 0 .455.788.648.648 0 0 0 .787-.455z" color="#000" font-family="sans-serif" font-weight="400" overflow="visible" style="line-height:normal;text-indent:0;text-align:start;text-decoration-line:none;text-decoration-style:solid;text-decoration-color:#000;text-transform:none;block-progression:tb;isolation:auto;mix-blend-mode:normal"></path>
    <path fill="#496078" d="M17.944 1043.873a.648.648 0 0 0-.454-.788.648.648 0 0 0-.788.455.648.648 0 0 0 .455.788.648.648 0 0 0 .787-.455z" color="#000" font-family="sans-serif" font-weight="400" overflow="visible" style="line-height:normal;text-indent:0;text-align:start;text-decoration-line:none;text-decoration-style:solid;text-decoration-color:#000;text-transform:none;block-progression:tb;isolation:auto;mix-blend-mode:normal"></path>
    <path fill="#496078" fill-rule="evenodd" d="M21.637 1037.548h-.007l-.621-.166-.17.63c-.154.58-.507.8-.876.814l.43-1.61-.62-.166-.432 1.61c-.312-.197-.51-.564-.354-1.144l.053-.199h.002l.115-.427-.621-.166-.047.175-2.377 1.395.325.555 1.867-1.094c-.04.712.346 1.279.868 1.546l-.228.848.622.167.227-.849a1.59 1.59 0 0 0 .701-.132l-.307 1.147.621.166z" color="#000" font-family="sans-serif" font-weight="400" overflow="visible" style="line-height:normal;text-indent:0;text-align:start;text-decoration-line:none;text-decoration-style:solid;text-decoration-color:#000;text-transform:none;block-progression:tb;isolation:auto;mix-blend-mode:normal"></path>
    <rect width="16.078" height="8.361" x="998.414" y="-260.233" fill="#105286" rx=".984" ry=".984" transform="matrix(.25883 .96592 .96593 -.25881 0 0)"></rect>
    <path fill="#2dbca4" d="M8.252 1033.833a1.638 1.638.003 0 0 1.158-2.006l3.692-.99a1.638 1.638.003 0 0 2.007 1.16l2.967 11.075a1.638 1.638.003 0 0-1.158 2.006l-3.692.99a1.638 1.638.003 0 0-2.006-1.16l-2.968-11.075z"></path>
    <path fill="#105286" d="M11.133 1033.312a.648.648 0 0 1 .455-.787.648.648 0 0 1 .788.454.648.648 0 0 1-.455.788.648.648 0 0 1-.788-.455z" color="#000" font-family="sans-serif" font-weight="400" overflow="visible" style="line-height:normal;text-indent:0;text-align:start;text-decoration-line:none;text-decoration-style:solid;text-decoration-color:#000;text-transform:none;block-progression:tb;isolation:auto;mix-blend-mode:normal"></path>
    <path fill="#496078" d="M13.963 1043.873a.648.648 0 0 1 .455-.788.648.648 0 0 1 .787.455.648.648 0 0 1-.454.788.648.648 0 0 1-.788-.455z" color="#000" font-family="sans-serif" font-weight="400" overflow="visible" style="line-height:normal;text-indent:0;text-align:start;text-decoration-line:none;text-decoration-style:solid;text-decoration-color:#000;text-transform:none;block-progression:tb;isolation:auto;mix-blend-mode:normal"></path>
    <path fill="#496078" fill-rule="evenodd" d="M10.27 1037.548h.007l.622-.166.169.63c.155.58.508.8.877.814l-.431-1.61.62-.166.432 1.61c.313-.197.51-.564.354-1.144l-.053-.199h-.002l-.115-.427.621-.166.048.175 2.376 1.395-.325.555-1.866-1.094a1.613 1.613 0 0 1-.868 1.546l.227.848-.621.167-.227-.849a1.59 1.59 0 0 1-.702-.132l.308 1.147-.622.166z" color="#000" font-family="sans-serif" font-weight="400" overflow="visible" style="line-height:normal;text-indent:0;text-align:start;text-decoration-line:none;text-decoration-style:solid;text-decoration-color:#000;text-transform:none;block-progression:tb;isolation:auto;mix-blend-mode:normal"></path>
    <rect width="16.078" height="8.361" x="1027.548" y="-20.134" fill="#105286" rx=".984" ry=".984" transform="rotate(90)"></rect>
    <path fill="#2dbca4" d="M19.515 1029.879a1.638 1.638 89.989 0 1-1.638-1.638h-3.822a1.638 1.638 89.989 0 1-1.639 1.638v11.466a1.638 1.638 89.989 0 1 1.639 1.638h3.822a1.638 1.638 89.989 0 1 1.638-1.638v-11.466z"></path>
    <path fill="#105286" d="M16.597 1030.121a.648.648 0 0 0-.643-.643.648.648 0 0 0-.643.643c0 .352.292.643.643.643a.648.648 0 0 0 .643-.643z" color="#000" font-family="sans-serif" font-weight="400" overflow="visible" style="line-height:normal;text-indent:0;text-align:start;text-decoration-line:none;text-decoration-style:solid;text-decoration-color:#000;text-transform:none;block-progression:tb;isolation:auto;mix-blend-mode:normal"></path>
    <path fill="#496078" d="M16.597 1041.054a.648.648 0 0 0-.643-.643.648.648 0 0 0-.643.643c0 .352.292.643.643.643a.648.648 0 0 0 .643-.643z" color="#000" font-family="sans-serif" font-weight="400" overflow="visible" style="line-height:normal;text-indent:0;text-align:start;text-decoration-line:none;text-decoration-style:solid;text-decoration-color:#000;text-transform:none;block-progression:tb;isolation:auto;mix-blend-mode:normal"></path>
    <path fill="#105286" fill-rule="evenodd" d="M18.526 1033.99h-.649v.652c0 .6-.284.904-.637 1.013v-1.666h-.643v1.666c-.353-.109-.639-.412-.639-1.012v-.207h.001v-.442h-.642v.182l-1.935 1.962.457.453 1.52-1.54a1.612 1.612 0 0 0 1.239 1.268v.878h.643v-.878c.231-.05.45-.158.643-.309v1.187h.643z" color="#000" font-family="sans-serif" font-weight="400" overflow="visible" style="line-height:normal;text-indent:0;text-align:start;text-decoration-line:none;text-decoration-style:solid;text-decoration-color:#000;text-transform:none;block-progression:tb;isolation:auto;mix-blend-mode:normal"></path>
    <rect width="18.069" height="11.766" x="6.965" y="1035.398" fill="#7d9ec7" rx="1.181" ry="1.181"></rect>
    <path fill="#406b95" d="M6.965 1044.833v1.125a1.215 1.215 0 0 0 1.217 1.206h15.633c.67 0 1.21-.537 1.217-1.206V1044.832H8.181z"></path>
    <path fill="#ee7581" fill-rule="evenodd" d="M25.034 1040.702h-6.723l-.84.84v1.681l.84.84h6.723z"></path>
    <circle cx="18.941" cy="1042.383" r=".63" fill="#ffcd00"></circle>
    <path fill="#f0f4f7" d="M8.374 1036.116a.786.786 0 0 0-.781.781v2.038a.276.276 0 1 0 .55 0v-2.038c0-.132.099-.23.23-.23H19.78a.276.276 0 0 0 0-.551H8.374z" color="#000" font-family="sans-serif" font-weight="400" overflow="visible" style="line-height:normal;text-indent:0;text-align:start;text-decoration-line:none;text-decoration-style:solid;text-decoration-color:#000;text-transform:none;block-progression:tb;isolation:auto;mix-blend-mode:normal"></path>
    <path fill="none" stroke="#105286" stroke-linecap="round" stroke-miterlimit="3.973" stroke-width=".887" d="M12.756 1027.548a.98.98 0 0 0-.982.983v1.946L8 1031.488a.983.983 0 0 0-.697 1.205l.732 2.726a1.17 1.17 0 0 0-1.071 1.16v9.405a1.18 1.18 0 0 0 1.182 1.182H23.855a1.18 1.18 0 0 0 1.182-1.182v-9.402c0-.646-.516-1.162-1.157-1.176l.726-2.71a.982.982 0 0 0-.698-1.205l-3.772-1.012v-1.946a.98.98 0 0 0-.983-.983h-6.394z"></path>
    <path fill="none" stroke="#a3bf62" stroke-linecap="round" stroke-linejoin="round" stroke-miterlimit="3.973" stroke-width=".887" d="M5.502 1029.113v-1.184m-.591.592h1.183"></path>
    <path fill="none" stroke="#eb8e68" stroke-linecap="round" stroke-linejoin="round" stroke-miterlimit="3.973" stroke-width=".887" d="M24.716 1026.746v-1.184m-.591.592h1.182"></path>
    <path fill="none" stroke="#70979c" stroke-linecap="round" stroke-linejoin="round" stroke-miterlimit="3.973" stroke-width=".887" d="M29.155 1035.323v-1.183m-.591.591h1.182"></path>
    <path fill="none" stroke="#496078" stroke-linecap="round" stroke-linejoin="round" stroke-miterlimit="3.973" stroke-width=".887" d="M4.32 1039.766v-1.183m-.592.591h1.183"></path>
    <ellipse cx="3.137" cy="1032.072" fill="none" stroke="#7d9ec7" stroke-linecap="round" stroke-linejoin="round" stroke-miterlimit="3.973" stroke-width=".887" rx=".887" ry=".888"></ellipse>
    <ellipse cx="27.381" cy="1039.766" fill="#496078" rx=".591" ry=".592"></ellipse>
    <ellipse cx="28" cy="1028.362" fill="none" stroke="#7d9ec7" stroke-linecap="round" stroke-linejoin="round" stroke-miterlimit="3.973" stroke-width=".887" rx=".887" ry=".888"></ellipse>
  </g>
</svg>
